<svg xmlns="http://www.w3.org/2000/svg" width="30" height="30" viewBox="0 0 30 30" fill="none">
  <path fill-rule="evenodd" clip-rule="evenodd" d="M29.9001 13.2505C29.5516 10.2442 28.3042 7.41351 26.3214 5.1293C24.3385 2.8451 21.7127 1.21398 18.7881 0.449712C21.3106 1.27578 23.5512 2.79379 25.2551 4.83121C26.959 6.86863 28.058 9.34377 28.4271 11.9754C25.3581 9.46116 20.3946 7.09415 15.7131 8.56452C17.7741 10.4374 18.2631 12.7699 16.0776 14.7779C18.4596 10.8009 13.7226 9.04513 11.3526 7.21731C9.43861 5.73943 10.5861 3.91311 12.0636 2.63349C13.6851 1.2277 16.0896 0.325054 17.8791 0.230434C14.4861 -0.413885 9.36361 0.254464 6.90061 2.7236C4.43761 5.19274 6.15061 8.58104 9.15061 11.307C9.15061 11.307 5.35261 14.9221 3.16261 17.5534C0.972606 20.1848 6.04561 24.0222 6.04561 24.0222C11.9286 19.6666 16.4601 23.2457 18.6456 27.4991C16.322 28.2302 13.8496 28.3504 11.4663 27.8479C9.08292 27.3455 6.8688 26.2374 5.03691 24.6302C3.20503 23.0231 1.81703 20.9709 1.00645 18.6712C0.195875 16.3715 -0.0100096 13.9017 0.408606 11.4993C-0.0992054 13.6329 -0.134129 15.852 0.306292 18.0005C0.746712 20.1491 1.65179 22.175 2.95789 23.9359C4.264 25.6967 5.93944 27.1498 7.86645 28.1929C9.79345 29.236 11.9252 29.8438 14.112 29.9737C16.2987 30.1035 18.4873 29.7522 20.5239 28.9445C22.5606 28.1367 24.3958 26.8922 25.9006 25.2982C27.4054 23.7043 28.5433 21.7997 29.2343 19.7183C29.9252 17.6369 30.1525 15.4292 29.9001 13.2505ZM9.59761 14.5301L7.49761 14.3799L10.6911 11.5488L9.59761 14.5301Z" fill="url(#paint0_linear_139_142)"/>
  <path fill-rule="evenodd" clip-rule="evenodd" d="M4.13978 15.3925C5.60978 13.793 7.26127 12.1604 8.12377 11.3208C5.86328 11.2487 3.83228 10.3281 4.00478 7.64417C4.15954 5.88761 4.79652 4.20813 5.84527 2.7915C4.74048 3.62403 3.75349 4.60267 2.91128 5.7007C0.452776 8.91028 0.0702765 13.9282 4.13978 15.3925Z" fill="url(#paint1_linear_139_142)"/>
  <defs>
    <linearGradient id="paint0_linear_139_142" x1="5.70349" y1="2.95488e-06" x2="30.812" y2="1.00996" gradientUnits="userSpaceOnUse">
      <stop stop-color="#70FFDE"/>
      <stop offset="1" stop-color="#9852FF"/>
    </linearGradient>
    <linearGradient id="paint1_linear_139_142" x1="0.602195" y1="-4.98359" x2="9.06297" y2="-3.68782" gradientUnits="userSpaceOnUse">
      <stop stop-color="#70FFDE"/>
      <stop offset="1" stop-color="#9852FF"/>
    </linearGradient>
  </defs>
</svg>