<svg xmlns="http://www.w3.org/2000/svg" width="123" height="14" viewBox="0 0 123 14" fill="none">
  <path d="M113.099 0.682007H122.815V2.93858H115.593V5.68256H122.261V7.93913H115.593V11.0622H123V13.3188H113.099V0.682007Z" fill="url(#paint0_linear_139_145)"/>
  <path d="M99.2234 13.3188V0.682007H104.211C106.316 0.682007 107.96 1.26571 109.143 2.4331C110.325 3.58847 110.916 5.14099 110.916 7.09066C110.916 8.91999 110.319 10.4183 109.124 11.5857C107.93 12.7411 106.31 13.3188 104.266 13.3188H99.2234ZM101.717 2.88442V11.0983H104.211C105.553 11.0983 106.587 10.7252 107.314 9.97907C108.053 9.2329 108.422 8.27009 108.422 7.09066C108.422 5.77884 108.053 4.74985 107.314 4.00368C106.587 3.2575 105.541 2.88442 104.174 2.88442H101.717Z" fill="url(#paint1_linear_139_145)"/>
  <path d="M83.6452 13.3188L88.8542 0.682007H92.3822L97.5727 13.3188H94.8204L93.6937 10.4665H87.5242L86.4159 13.3188H83.6452ZM88.3924 8.26408H92.844L90.6089 2.61363L88.3924 8.26408Z" fill="url(#paint2_linear_139_145)"/>
  <path d="M82.4375 13.3188H79.519C79.3466 12.9938 79.2358 12.6328 79.1865 12.2356C79.1249 11.7903 79.0942 11.1886 79.0942 10.4304C79.0942 9.01025 78.3922 8.30018 76.9884 8.30018H74.2177V13.3188H71.724V0.682007H78.0598C79.3651 0.682007 80.3995 1.01899 81.163 1.69295C81.9264 2.35488 82.3082 3.20335 82.3082 4.23836C82.3082 4.99657 82.0742 5.67655 81.6063 6.2783C81.1506 6.86801 80.5349 7.30127 79.7591 7.57808C81.0275 7.98727 81.6986 8.926 81.7725 10.3943C81.8095 11.1404 81.871 11.7001 81.9572 12.0732C82.0434 12.4342 82.2035 12.7531 82.4375 13.0299V13.3188ZM74.2177 6.04361H77.912C78.5154 6.04361 78.9833 5.90521 79.3158 5.62841C79.6483 5.33956 79.8145 4.95444 79.8145 4.47304C79.8145 3.99164 79.6483 3.61855 79.3158 3.35378C78.9956 3.07698 78.5277 2.93858 77.912 2.93858H74.2177V6.04361Z" fill="url(#paint3_linear_139_145)"/>
  <path d="M69.8273 0.682007V2.93858H65.2648V13.3188H62.7712V2.93858H58.1902V0.682007H69.8273Z" fill="url(#paint4_linear_139_145)"/>
  <path d="M42.2901 0.682007H52.0061V2.93858H44.7838V5.68256H51.452V7.93913H44.7838V11.0622H52.1908V13.3188H42.2901V0.682007Z" fill="url(#paint5_linear_139_145)"/>
  <path d="M33.0985 13.4993C31.2883 13.5234 29.7552 12.9156 28.4991 11.676C27.2554 10.4244 26.6458 8.86582 26.6705 7.00039C26.6335 5.19514 27.2677 3.65466 28.573 2.37894C29.8906 1.09119 31.473 0.465372 33.3202 0.501477C34.9949 0.501477 36.368 0.898633 37.4393 1.69294C38.523 2.47522 39.2372 3.54634 39.582 4.9063L37.1438 5.66451C36.9467 4.73781 36.5157 4.02172 35.8508 3.51625C35.1858 3.01078 34.3546 2.75805 33.3571 2.75805C32.1873 2.75805 31.2021 3.16122 30.4017 3.96757C29.6136 4.76188 29.2195 5.77282 29.2195 7.00039C29.2195 8.25204 29.6013 9.27501 30.3647 10.0693C31.1282 10.8516 32.1134 11.2427 33.3202 11.2427C34.2684 11.2427 35.0319 10.984 35.6106 10.4665C36.2017 9.94898 36.565 9.37731 36.7005 8.75149H31.473V6.63934H39.8591V13.3188H37.6979V10.7012C36.8482 12.5666 35.3151 13.4993 33.0985 13.4993Z" fill="url(#paint6_linear_139_145)"/>
  <path d="M12.4212 13.3187L17.6301 0.681946H21.1582L26.3486 13.3187H23.5964L22.4696 10.4664H16.3002L15.1919 13.3187H12.4212ZM17.1683 8.26402H21.6199L19.3849 2.61357L17.1683 8.26402Z" fill="url(#paint7_linear_139_145)"/>
  <path d="M11.2134 13.3188H8.29495C8.12255 12.9938 8.01172 12.6328 7.96247 12.2356C7.90089 11.7903 7.87011 11.1886 7.87011 10.4304C7.87011 9.01022 7.16819 8.30015 5.76436 8.30015H2.99365V13.3188H0.5V0.681976H6.83571C8.14102 0.681976 9.17542 1.01896 9.93891 1.69292C10.7024 2.35485 11.0841 3.20332 11.0841 4.23833C11.0841 4.99654 10.8502 5.67652 10.3822 6.27827C9.9266 6.86798 9.31088 7.30124 8.53508 7.57805C9.80345 7.98724 10.4746 8.92597 10.5485 10.3942C10.5854 11.1404 10.647 11.7 10.7332 12.0731C10.8194 12.4342 10.9795 12.7531 11.2134 13.0299V13.3188ZM2.99365 6.04358H6.68794C7.29134 6.04358 7.75928 5.90518 8.09177 5.62838C8.42425 5.33953 8.5905 4.95441 8.5905 4.47301C8.5905 3.99161 8.42425 3.61852 8.09177 3.35375C7.77159 3.07695 7.30365 2.93854 6.68794 2.93854H2.99365V6.04358Z" fill="url(#paint8_linear_139_145)"/>
  <defs>
    <linearGradient id="paint0_linear_139_145" x1="-1.40297" y1="-3.43454" x2="65.5029" y2="71.3872" gradientUnits="userSpaceOnUse">
      <stop stop-color="#70FFDE"/>
      <stop offset="1" stop-color="#9852FF"/>
    </linearGradient>
    <linearGradient id="paint1_linear_139_145" x1="-1.40302" y1="-3.43454" x2="65.5029" y2="71.3873" gradientUnits="userSpaceOnUse">
      <stop stop-color="#70FFDE"/>
      <stop offset="1" stop-color="#9852FF"/>
    </linearGradient>
    <linearGradient id="paint2_linear_139_145" x1="-1.40301" y1="-3.43454" x2="65.5029" y2="71.3873" gradientUnits="userSpaceOnUse">
      <stop stop-color="#70FFDE"/>
      <stop offset="1" stop-color="#9852FF"/>
    </linearGradient>
    <linearGradient id="paint3_linear_139_145" x1="-1.40296" y1="-3.43454" x2="65.5029" y2="71.3872" gradientUnits="userSpaceOnUse">
      <stop stop-color="#70FFDE"/>
      <stop offset="1" stop-color="#9852FF"/>
    </linearGradient>
    <linearGradient id="paint4_linear_139_145" x1="-1.40296" y1="-3.43454" x2="65.5029" y2="71.3872" gradientUnits="userSpaceOnUse">
      <stop stop-color="#70FFDE"/>
      <stop offset="1" stop-color="#9852FF"/>
    </linearGradient>
    <linearGradient id="paint5_linear_139_145" x1="-1.40295" y1="-3.43455" x2="65.503" y2="71.3872" gradientUnits="userSpaceOnUse">
      <stop stop-color="#70FFDE"/>
      <stop offset="1" stop-color="#9852FF"/>
    </linearGradient>
    <linearGradient id="paint6_linear_139_145" x1="-1.40297" y1="-3.43452" x2="65.5029" y2="71.3873" gradientUnits="userSpaceOnUse">
      <stop stop-color="#70FFDE"/>
      <stop offset="1" stop-color="#9852FF"/>
    </linearGradient>
    <linearGradient id="paint7_linear_139_145" x1="-1.40296" y1="-3.43455" x2="65.5029" y2="71.3872" gradientUnits="userSpaceOnUse">
      <stop stop-color="#70FFDE"/>
      <stop offset="1" stop-color="#9852FF"/>
    </linearGradient>
    <linearGradient id="paint8_linear_139_145" x1="-1.40297" y1="-3.43452" x2="65.5029" y2="71.3873" gradientUnits="userSpaceOnUse">
      <stop stop-color="#70FFDE"/>
      <stop offset="1" stop-color="#9852FF"/>
    </linearGradient>
  </defs>
</svg>